<svg xmlns="http://www.w3.org/2000/svg" xmlns:xlink="http://www.w3.org/1999/xlink" width="500" zoomAndPan="magnify" viewBox="0 0 375 374.999991" height="500" preserveAspectRatio="xMidYMid meet" version="1.0"><defs><g/><clipPath id="09a67ea15f"><path d="M 112.5 168 L 184 168 L 184 196.40625 L 112.5 196.40625 Z M 112.5 168 " clip-rule="nonzero"/></clipPath><clipPath id="fa2b732102"><path d="M 155 152.15625 L 187 152.15625 L 187 186 L 155 186 Z M 155 152.15625 " clip-rule="nonzero"/></clipPath><clipPath id="b9d05de55e"><path d="M 191 168 L 262.5 168 L 262.5 196.40625 L 191 196.40625 Z M 191 168 " clip-rule="nonzero"/></clipPath><clipPath id="2ce7ad1d36"><path d="M 188 152.15625 L 220 152.15625 L 220 186 L 188 186 Z M 188 152.15625 " clip-rule="nonzero"/></clipPath><clipPath id="993f256b1c"><path d="M 182 84.40625 L 236 84.40625 L 236 158 L 182 158 Z M 182 84.40625 " clip-rule="nonzero"/></clipPath><clipPath id="397107313b"><path d="M 172.222656 136 L 242.722656 136 L 242.722656 163.15625 L 172.222656 163.15625 Z M 172.222656 136 " clip-rule="nonzero"/></clipPath></defs><g clip-path="url(#09a67ea15f)"><path fill="#ffffff" d="M 112.667969 168.121094 L 127.191406 196.59375 L 118.847656 173.910156 C 118.847656 173.910156 164.1875 177.722656 183.960938 196.59375 C 183.960938 196.59375 176.699219 174.480469 112.667969 168.121094 Z M 112.667969 168.121094 " fill-opacity="1" fill-rule="nonzero"/></g><path fill="#ffffff" d="M 135.980469 157.675781 L 135.980469 168.121094 C 168.507812 172.289062 186.449219 190.894531 186.449219 190.894531 C 173.335938 167.757812 135.980469 157.675781 135.980469 157.675781 Z M 135.980469 157.675781 " fill-opacity="1" fill-rule="nonzero"/><g clip-path="url(#fa2b732102)"><path fill="#ffffff" d="M 155.09375 152.15625 L 155.09375 161.398438 C 175.769531 169.738281 186.417969 185.34375 186.417969 185.34375 C 179.128906 163.769531 155.09375 152.15625 155.09375 152.15625 Z M 155.09375 152.15625 " fill-opacity="1" fill-rule="nonzero"/></g><g clip-path="url(#b9d05de55e)"><path fill="#ffffff" d="M 262.332031 168.121094 C 198.300781 174.480469 191.039062 196.59375 191.039062 196.59375 C 210.8125 177.722656 256.152344 173.910156 256.152344 173.910156 L 247.808594 196.59375 Z M 262.332031 168.121094 " fill-opacity="1" fill-rule="nonzero"/></g><path fill="#ffffff" d="M 239.046875 157.675781 C 239.046875 157.675781 201.691406 167.730469 188.582031 190.863281 C 188.582031 190.863281 206.523438 172.261719 239.046875 168.089844 Z M 239.046875 157.675781 " fill-opacity="1" fill-rule="nonzero"/><g clip-path="url(#2ce7ad1d36)"><path fill="#ffffff" d="M 219.90625 161.398438 L 219.90625 152.15625 C 219.90625 152.15625 195.871094 163.769531 188.582031 185.34375 C 188.582031 185.34375 199.230469 169.738281 219.90625 161.398438 Z M 219.90625 161.398438 " fill-opacity="1" fill-rule="nonzero"/></g><g clip-path="url(#993f256b1c)"><path fill="#fab12f" d="M 194.441406 135.78125 L 195.378906 132.925781 C 199.222656 120.351562 203.652344 110.832031 208.671875 104.371094 C 212.96875 98.464844 221.726562 91.8125 234.953125 84.410156 C 235.824219 90.757812 235.75 95.40625 234.738281 98.351562 C 233.984375 101.335938 231.402344 105.582031 227 111.09375 L 232.679688 111.421875 C 227.027344 114.042969 223.757812 115.699219 222.867188 116.390625 C 221.980469 117.128906 224.644531 116.660156 230.863281 114.992188 C 223.898438 121.828125 218.585938 126.605469 214.921875 129.328125 C 211.132812 132.179688 207.660156 134.425781 204.503906 136.066406 L 201.460938 137.472656 C 200.902344 137.808594 199.386719 138.140625 196.917969 138.476562 C 196.21875 138.785156 195.769531 139.046875 195.578125 139.269531 C 194.148438 140.242188 189.835938 146.34375 182.644531 157.574219 C 185.261719 151.472656 187.871094 146.695312 190.464844 143.242188 L 223.84375 97.996094 L 210.015625 115.253906 L 194.441406 135.78125 " fill-opacity="1" fill-rule="nonzero"/></g><g clip-path="url(#397107313b)"><path fill="#fab12f" d="M 190.800781 156.609375 C 191.03125 156.902344 191.484375 157.363281 191.808594 157.78125 C 192.128906 158.203125 192.320312 158.585938 192.382812 158.929688 C 192.445312 159.273438 192.394531 159.59375 192.207031 159.976562 C 192.019531 160.363281 191.714844 160.769531 191.332031 161.113281 C 190.945312 161.453125 190.472656 161.738281 189.910156 161.96875 C 189.34375 162.195312 188.683594 162.367188 187.574219 162.476562 C 186.46875 162.585938 185.003906 162.527344 183.625 162.265625 C 182.242188 162.003906 180.945312 161.539062 179.726562 160.871094 C 178.507812 160.203125 177.363281 159.328125 176.09375 157.757812 C 174.828125 156.1875 173.773438 154.140625 173.355469 152.296875 C 172.9375 150.453125 173.128906 148.808594 173.929688 147.316406 C 174.730469 145.828125 176.164062 144.46875 177.40625 143.75 C 178.644531 143.027344 179.375 142.851562 180.171875 142.726562 C 180.964844 142.605469 181.828125 142.542969 182.753906 142.535156 C 183.675781 142.53125 184.667969 142.582031 185.417969 142.65625 C 186.167969 142.726562 186.636719 142.785156 187.113281 142.855469 C 187.585938 142.921875 188.0625 143 188.542969 143.085938 C 189.019531 143.171875 189.503906 143.269531 191.289062 143.714844 C 193.074219 144.15625 195.898438 144.863281 198.292969 145.441406 C 200.6875 146.015625 202.65625 146.46875 204.203125 146.792969 C 205.75 147.117188 206.878906 147.3125 207.992188 147.46875 C 209.105469 147.625 210.511719 147.789062 211.929688 147.898438 C 213.347656 148.003906 214.78125 148.054688 216.222656 148.046875 C 217.667969 148.035156 219.125 147.972656 221.691406 147.652344 C 224.261719 147.332031 227.621094 146.648438 230.53125 145.742188 C 233.445312 144.832031 235.90625 143.6875 237.878906 142.265625 C 239.851562 140.84375 241.316406 139.179688 242.148438 137.832031 C 242.976562 136.484375 242.976562 136.484375 242.371094 137.339844 C 242.371094 137.339844 240.992188 138.910156 239.292969 140.296875 C 237.589844 141.683594 235.480469 142.875 232.941406 143.902344 C 230.402344 144.925781 227.40625 145.742188 223.949219 146.339844 C 220.492188 146.941406 219.070312 147.039062 217.640625 147.085938 C 216.214844 147.132812 214.800781 147.121094 213.398438 147.054688 C 211.996094 146.984375 210.605469 146.863281 209.226562 146.679688 C 207.84375 146.5 207.023438 146.390625 205.777344 146.15625 C 204.535156 145.921875 202.859375 145.558594 200.757812 145.066406 C 198.652344 144.574219 196.121094 143.957031 193.160156 143.210938 C 190.199219 142.464844 189.691406 142.355469 189.199219 142.261719 C 188.707031 142.164062 188.214844 142.078125 187.730469 142.003906 C 187.242188 141.929688 186.757812 141.863281 186.277344 141.804688 C 185.792969 141.746094 184.734375 141.652344 183.730469 141.617188 C 182.722656 141.585938 181.78125 141.609375 180.894531 141.699219 C 180.007812 141.785156 179.179688 141.9375 178.375 142.167969 C 177.566406 142.398438 175.585938 143.738281 174.246094 145.285156 C 172.902344 146.832031 172.226562 148.585938 172.230469 150.507812 C 172.238281 152.433594 172.914062 154.503906 174.246094 156.722656 C 175.574219 158.9375 176.761719 160.042969 178.007812 160.902344 C 179.253906 161.757812 180.585938 162.398438 182.003906 162.824219 C 183.421875 163.25 184.921875 163.457031 186.5 163.445312 C 188.078125 163.433594 188.898438 163.277344 189.59375 163.039062 C 190.292969 162.800781 190.894531 162.488281 191.402344 162.097656 C 191.90625 161.707031 192.308594 161.246094 192.605469 160.714844 C 192.898438 160.183594 193.035156 159.734375 193.011719 159.269531 C 192.988281 158.808594 192.8125 158.359375 192.496094 157.933594 C 192.179688 157.507812 191.726562 157.105469 191.417969 156.949219 C 190.820312 156.582031 191.09375 156.824219 190.800781 156.609375 Z M 190.800781 156.609375 " fill-opacity="1" fill-rule="nonzero"/></g><g fill="#ffffff" fill-opacity="1"><g transform="translate(60.378044, 246.092708)"><g><path d="M 12.703125 -32.859375 C 10.773438 -32.859375 9.035156 -32.769531 7.484375 -32.59375 C 5.941406 -32.425781 4.609375 -32.25 3.484375 -32.0625 C 2.179688 -31.8125 1.019531 -31.539062 0 -31.25 L 0.703125 -35.203125 C 0.898438 -35.191406 1.191406 -35.175781 1.578125 -35.15625 C 1.972656 -35.132812 2.410156 -35.113281 2.890625 -35.09375 C 3.367188 -35.082031 3.875 -35.070312 4.40625 -35.0625 C 4.9375 -35.0625 5.4375 -35.054688 5.90625 -35.046875 C 6.375 -35.035156 6.789062 -35.023438 7.15625 -35.015625 C 7.53125 -35.015625 7.796875 -35.015625 7.953125 -35.015625 L 21.90625 -35.015625 C 22.0625 -35.015625 22.320312 -35.015625 22.6875 -35.015625 C 23.0625 -35.023438 23.484375 -35.035156 23.953125 -35.046875 C 24.421875 -35.054688 24.921875 -35.0625 25.453125 -35.0625 C 25.984375 -35.070312 26.488281 -35.082031 26.96875 -35.09375 C 27.445312 -35.113281 27.878906 -35.132812 28.265625 -35.15625 C 28.660156 -35.175781 28.957031 -35.191406 29.15625 -35.203125 L 29.859375 -31.25 C 28.816406 -31.539062 27.644531 -31.8125 26.34375 -32.0625 C 25.21875 -32.25 23.878906 -32.425781 22.328125 -32.59375 C 20.785156 -32.769531 19.054688 -32.859375 17.140625 -32.859375 L 17.140625 -9.546875 C 17.140625 -8.160156 17.160156 -6.953125 17.203125 -5.921875 C 17.242188 -4.890625 17.289062 -4 17.34375 -3.25 C 17.40625 -2.5 17.476562 -1.867188 17.5625 -1.359375 C 17.65625 -0.859375 17.75 -0.4375 17.84375 -0.09375 L 17.84375 0 L 12.015625 0 L 12.015625 -0.09375 C 12.109375 -0.4375 12.195312 -0.859375 12.28125 -1.359375 C 12.363281 -1.867188 12.4375 -2.5 12.5 -3.25 C 12.5625 -4 12.609375 -4.890625 12.640625 -5.921875 C 12.679688 -6.953125 12.703125 -8.160156 12.703125 -9.546875 Z M 12.703125 -32.859375 "/></g></g></g><g fill="#ffffff" fill-opacity="1"><g transform="translate(90.831775, 246.092708)"><g><path d="M 27.703125 -16.75 C 27.054688 -16.757812 26.242188 -16.769531 25.265625 -16.78125 C 24.285156 -16.789062 23.222656 -16.800781 22.078125 -16.8125 C 20.929688 -16.832031 19.734375 -16.847656 18.484375 -16.859375 C 17.242188 -16.867188 16.03125 -16.875 14.84375 -16.875 C 13.65625 -16.882812 12.523438 -16.878906 11.453125 -16.859375 C 10.378906 -16.847656 9.441406 -16.828125 8.640625 -16.796875 L 8.640625 -9.546875 C 8.640625 -8.160156 8.660156 -6.953125 8.703125 -5.921875 C 8.742188 -4.890625 8.789062 -4 8.84375 -3.25 C 8.90625 -2.5 8.976562 -1.867188 9.0625 -1.359375 C 9.15625 -0.859375 9.25 -0.4375 9.34375 -0.09375 L 9.34375 0 L 3.484375 0 L 3.484375 -0.09375 C 3.585938 -0.4375 3.679688 -0.859375 3.765625 -1.359375 C 3.859375 -1.867188 3.9375 -2.5 4 -3.25 C 4.070312 -4 4.125 -4.890625 4.15625 -5.921875 C 4.1875 -6.953125 4.203125 -8.160156 4.203125 -9.546875 L 4.203125 -25.4375 C 4.203125 -26.820312 4.1875 -28.03125 4.15625 -29.0625 C 4.125 -30.09375 4.070312 -30.988281 4 -31.75 C 3.9375 -32.507812 3.859375 -33.140625 3.765625 -33.640625 C 3.679688 -34.148438 3.585938 -34.570312 3.484375 -34.90625 L 3.484375 -35.015625 L 9.34375 -35.015625 L 9.34375 -34.90625 C 9.25 -34.570312 9.15625 -34.148438 9.0625 -33.640625 C 8.976562 -33.140625 8.90625 -32.507812 8.84375 -31.75 C 8.789062 -30.988281 8.742188 -30.09375 8.703125 -29.0625 C 8.660156 -28.03125 8.640625 -26.820312 8.640625 -25.4375 L 8.640625 -19.1875 C 9.484375 -19.15625 10.441406 -19.132812 11.515625 -19.125 C 12.597656 -19.113281 13.722656 -19.113281 14.890625 -19.125 C 16.066406 -19.132812 17.257812 -19.144531 18.46875 -19.15625 C 19.675781 -19.175781 20.847656 -19.195312 21.984375 -19.21875 C 23.117188 -19.25 24.175781 -19.28125 25.15625 -19.3125 C 26.144531 -19.34375 26.992188 -19.375 27.703125 -19.40625 L 27.703125 -25.4375 C 27.703125 -26.820312 27.679688 -28.03125 27.640625 -29.0625 C 27.609375 -30.09375 27.5625 -30.988281 27.5 -31.75 C 27.445312 -32.507812 27.375 -33.140625 27.28125 -33.640625 C 27.195312 -34.148438 27.101562 -34.570312 27 -34.90625 L 27 -35.015625 L 32.859375 -35.015625 L 32.859375 -34.90625 C 32.765625 -34.570312 32.671875 -34.148438 32.578125 -33.640625 C 32.492188 -33.140625 32.414062 -32.507812 32.34375 -31.75 C 32.28125 -30.988281 32.234375 -30.09375 32.203125 -29.0625 C 32.171875 -28.03125 32.15625 -26.820312 32.15625 -25.4375 L 32.15625 -9.546875 C 32.15625 -8.160156 32.171875 -6.953125 32.203125 -5.921875 C 32.234375 -4.890625 32.28125 -4 32.34375 -3.25 C 32.414062 -2.5 32.492188 -1.867188 32.578125 -1.359375 C 32.671875 -0.859375 32.765625 -0.4375 32.859375 -0.09375 L 32.859375 0 L 27 0 L 27 -0.09375 C 27.101562 -0.4375 27.195312 -0.859375 27.28125 -1.359375 C 27.375 -1.867188 27.445312 -2.5 27.5 -3.25 C 27.5625 -4 27.609375 -4.890625 27.640625 -5.921875 C 27.679688 -6.953125 27.703125 -8.160156 27.703125 -9.546875 Z M 27.703125 -16.75 "/></g></g></g><g fill="#ffffff" fill-opacity="1"><g transform="translate(127.778631, 246.092708)"><g><path d="M 8.640625 -9.546875 C 8.640625 -8.160156 8.660156 -6.953125 8.703125 -5.921875 C 8.742188 -4.890625 8.789062 -4 8.84375 -3.25 C 8.90625 -2.5 8.976562 -1.867188 9.0625 -1.359375 C 9.15625 -0.859375 9.25 -0.4375 9.34375 -0.09375 L 9.34375 0 L 3.484375 0 L 3.484375 -0.09375 C 3.585938 -0.4375 3.679688 -0.859375 3.765625 -1.359375 C 3.859375 -1.867188 3.929688 -2.5 3.984375 -3.25 C 4.046875 -4 4.097656 -4.882812 4.140625 -5.90625 C 4.179688 -6.9375 4.203125 -8.148438 4.203125 -9.546875 L 4.203125 -25.4375 C 4.203125 -26.820312 4.179688 -28.03125 4.140625 -29.0625 C 4.097656 -30.09375 4.046875 -30.984375 3.984375 -31.734375 C 3.929688 -32.484375 3.859375 -33.113281 3.765625 -33.625 C 3.679688 -34.144531 3.585938 -34.570312 3.484375 -34.90625 L 3.484375 -35.015625 L 4.515625 -34.90625 C 4.828125 -34.875 5.171875 -34.851562 5.546875 -34.84375 C 5.929688 -34.84375 6.328125 -34.84375 6.734375 -34.84375 C 7.367188 -34.84375 8.226562 -34.914062 9.3125 -35.0625 C 10.394531 -35.21875 11.773438 -35.296875 13.453125 -35.296875 C 15.015625 -35.296875 16.457031 -35.082031 17.78125 -34.65625 C 19.113281 -34.238281 20.265625 -33.625 21.234375 -32.8125 C 22.210938 -32 22.972656 -31 23.515625 -29.8125 C 24.066406 -28.632812 24.34375 -27.300781 24.34375 -25.8125 C 24.34375 -24.632812 24.191406 -23.546875 23.890625 -22.546875 C 23.585938 -21.546875 23.160156 -20.640625 22.609375 -19.828125 C 22.066406 -19.015625 21.410156 -18.289062 20.640625 -17.65625 C 19.878906 -17.03125 19.03125 -16.507812 18.09375 -16.09375 L 26.65625 -4.046875 C 27.082031 -3.453125 27.476562 -2.929688 27.84375 -2.484375 C 28.207031 -2.046875 28.554688 -1.664062 28.890625 -1.34375 C 29.222656 -1.03125 29.546875 -0.769531 29.859375 -0.5625 C 30.171875 -0.363281 30.488281 -0.207031 30.8125 -0.09375 L 30.8125 0 L 23.75 0 C 23.707031 -0.3125 23.550781 -0.722656 23.28125 -1.234375 C 23.007812 -1.742188 22.695312 -2.253906 22.34375 -2.765625 L 13.703125 -14.9375 C 13.328125 -14.90625 12.953125 -14.875 12.578125 -14.84375 C 12.203125 -14.820312 11.816406 -14.8125 11.421875 -14.8125 C 10.972656 -14.8125 10.515625 -14.828125 10.046875 -14.859375 C 9.578125 -14.898438 9.109375 -14.960938 8.640625 -15.046875 Z M 8.640625 -16.9375 C 9.078125 -16.84375 9.523438 -16.773438 9.984375 -16.734375 C 10.441406 -16.691406 10.878906 -16.671875 11.296875 -16.671875 C 12.523438 -16.671875 13.640625 -16.851562 14.640625 -17.21875 C 15.648438 -17.59375 16.507812 -18.148438 17.21875 -18.890625 C 17.925781 -19.640625 18.472656 -20.570312 18.859375 -21.6875 C 19.253906 -22.800781 19.453125 -24.109375 19.453125 -25.609375 C 19.453125 -26.828125 19.3125 -27.929688 19.03125 -28.921875 C 18.757812 -29.921875 18.351562 -30.765625 17.8125 -31.453125 C 17.269531 -32.148438 16.582031 -32.6875 15.75 -33.0625 C 14.914062 -33.445312 13.945312 -33.640625 12.84375 -33.640625 C 11.71875 -33.640625 10.820312 -33.582031 10.15625 -33.46875 C 9.488281 -33.351562 8.984375 -33.234375 8.640625 -33.109375 Z M 8.640625 -16.9375 "/></g></g></g><g fill="#ffffff" fill-opacity="1"><g transform="translate(157.915025, 246.092708)"><g><path d="M 3.484375 -35.015625 C 5.523438 -35.015625 7.550781 -35.019531 9.5625 -35.03125 C 11.570312 -35.050781 13.414062 -35.070312 15.09375 -35.09375 C 16.769531 -35.113281 18.203125 -35.148438 19.390625 -35.203125 C 20.578125 -35.253906 21.378906 -35.320312 21.796875 -35.40625 L 20.609375 -32.15625 C 20.066406 -32.300781 19.4375 -32.429688 18.71875 -32.546875 C 18.101562 -32.640625 17.351562 -32.726562 16.46875 -32.8125 C 15.582031 -32.90625 14.5625 -32.953125 13.40625 -32.953125 C 13.007812 -32.953125 12.539062 -32.941406 12 -32.921875 C 11.457031 -32.898438 10.929688 -32.875 10.421875 -32.84375 C 9.835938 -32.800781 9.242188 -32.765625 8.640625 -32.734375 L 8.640625 -19.40625 C 10.316406 -19.425781 11.828125 -19.472656 13.171875 -19.546875 C 14.523438 -19.628906 15.675781 -19.710938 16.625 -19.796875 C 17.726562 -19.898438 18.707031 -20.015625 19.5625 -20.140625 L 18.796875 -16.609375 C 17.671875 -16.753906 16.523438 -16.890625 15.359375 -17.015625 C 14.347656 -17.128906 13.25 -17.226562 12.0625 -17.3125 C 10.875 -17.40625 9.734375 -17.453125 8.640625 -17.453125 L 8.640625 -2.15625 C 10.566406 -2.15625 12.332031 -2.234375 13.9375 -2.390625 C 15.550781 -2.554688 16.960938 -2.742188 18.171875 -2.953125 C 19.566406 -3.179688 20.84375 -3.453125 22 -3.765625 L 21.296875 0.203125 C 21.097656 0.179688 20.800781 0.160156 20.40625 0.140625 C 20.019531 0.128906 19.585938 0.113281 19.109375 0.09375 C 18.628906 0.0820312 18.125 0.0703125 17.59375 0.0625 C 17.0625 0.0507812 16.554688 0.0390625 16.078125 0.03125 C 15.609375 0.03125 15.191406 0.0234375 14.828125 0.015625 C 14.460938 0.00390625 14.195312 0 14.03125 0 L 3.484375 0 L 3.484375 -0.09375 C 3.585938 -0.4375 3.679688 -0.859375 3.765625 -1.359375 C 3.859375 -1.867188 3.9375 -2.5 4 -3.25 C 4.070312 -4 4.125 -4.890625 4.15625 -5.921875 C 4.1875 -6.953125 4.203125 -8.160156 4.203125 -9.546875 L 4.203125 -25.4375 C 4.203125 -26.820312 4.1875 -28.03125 4.15625 -29.0625 C 4.125 -30.09375 4.070312 -30.988281 4 -31.75 C 3.9375 -32.507812 3.859375 -33.140625 3.765625 -33.640625 C 3.679688 -34.148438 3.585938 -34.570312 3.484375 -34.90625 Z M 3.484375 -35.015625 "/></g></g></g><g fill="#ffffff" fill-opacity="1"><g transform="translate(183.022915, 246.092708)"><g><path d="M 27.703125 0 L 27.703125 -0.09375 C 27.742188 -0.175781 27.769531 -0.296875 27.78125 -0.453125 C 27.800781 -0.617188 27.8125 -0.769531 27.8125 -0.90625 C 27.8125 -1.40625 27.738281 -1.957031 27.59375 -2.5625 C 27.457031 -3.175781 27.195312 -3.941406 26.8125 -4.859375 L 23.859375 -11.5 C 22.941406 -11.53125 21.722656 -11.546875 20.203125 -11.546875 C 18.691406 -11.546875 17.0625 -11.546875 15.3125 -11.546875 C 14.019531 -11.546875 12.773438 -11.546875 11.578125 -11.546875 C 10.390625 -11.546875 9.3125 -11.53125 8.34375 -11.5 L 5.546875 -5.046875 C 5.296875 -4.453125 5.03125 -3.796875 4.75 -3.078125 C 4.476562 -2.359375 4.34375 -1.632812 4.34375 -0.90625 C 4.34375 -0.695312 4.359375 -0.519531 4.390625 -0.375 C 4.421875 -0.238281 4.457031 -0.144531 4.5 -0.09375 L 4.5 0 L -0.484375 0 L -0.484375 -0.09375 C -0.191406 -0.40625 0.171875 -0.957031 0.609375 -1.75 C 1.046875 -2.539062 1.523438 -3.53125 2.046875 -4.71875 L 16.046875 -35.75 L 18 -35.75 L 31.25 -5.90625 C 31.5625 -5.207031 31.882812 -4.523438 32.21875 -3.859375 C 32.550781 -3.203125 32.863281 -2.613281 33.15625 -2.09375 C 33.445312 -1.570312 33.707031 -1.132812 33.9375 -0.78125 C 34.164062 -0.425781 34.320312 -0.195312 34.40625 -0.09375 L 34.40625 0 Z M 11.890625 -13.640625 C 12.835938 -13.640625 13.804688 -13.644531 14.796875 -13.65625 C 15.785156 -13.664062 16.753906 -13.675781 17.703125 -13.6875 C 18.660156 -13.695312 19.578125 -13.703125 20.453125 -13.703125 C 21.335938 -13.710938 22.140625 -13.726562 22.859375 -13.75 L 15.984375 -29.25 L 9.25 -13.640625 Z M 11.890625 -13.640625 "/></g></g></g><g fill="#ffffff" fill-opacity="1"><g transform="translate(217.528749, 246.092708)"><g><path d="M 8.84375 -32.90625 C 8.8125 -31.082031 8.773438 -29.316406 8.734375 -27.609375 C 8.722656 -26.878906 8.710938 -26.128906 8.703125 -25.359375 C 8.691406 -24.597656 8.679688 -23.847656 8.671875 -23.109375 C 8.671875 -22.367188 8.664062 -21.660156 8.65625 -20.984375 C 8.644531 -20.304688 8.640625 -19.707031 8.640625 -19.1875 C 8.640625 -18.09375 8.644531 -16.773438 8.65625 -15.234375 C 8.675781 -13.691406 8.695312 -12.101562 8.71875 -10.46875 C 8.75 -8.84375 8.785156 -7.28125 8.828125 -5.78125 C 8.878906 -4.289062 8.941406 -3.046875 9.015625 -2.046875 C 9.234375 -2.015625 9.535156 -1.976562 9.921875 -1.9375 C 10.304688 -1.894531 10.707031 -1.863281 11.125 -1.84375 C 11.550781 -1.820312 11.96875 -1.800781 12.375 -1.78125 C 12.78125 -1.769531 13.125 -1.765625 13.40625 -1.765625 C 14.539062 -1.765625 15.707031 -1.835938 16.90625 -1.984375 C 18.101562 -2.140625 19.257812 -2.425781 20.375 -2.84375 C 21.488281 -3.269531 22.535156 -3.851562 23.515625 -4.59375 C 24.503906 -5.34375 25.367188 -6.300781 26.109375 -7.46875 C 26.847656 -8.644531 27.425781 -10.054688 27.84375 -11.703125 C 28.269531 -13.359375 28.484375 -15.304688 28.484375 -17.546875 C 28.484375 -20.046875 28.179688 -22.265625 27.578125 -24.203125 C 26.984375 -26.148438 26.101562 -27.789062 24.9375 -29.125 C 23.769531 -30.457031 22.328125 -31.46875 20.609375 -32.15625 C 18.898438 -32.851562 16.929688 -33.203125 14.703125 -33.203125 C 14.253906 -33.203125 13.753906 -33.1875 13.203125 -33.15625 C 12.648438 -33.132812 12.101562 -33.113281 11.5625 -33.09375 C 11.019531 -33.070312 10.503906 -33.039062 10.015625 -33 C 9.535156 -32.957031 9.144531 -32.925781 8.84375 -32.90625 Z M 3.484375 -35.109375 C 3.859375 -35.085938 4.210938 -35.070312 4.546875 -35.0625 C 4.816406 -35.039062 5.097656 -35.023438 5.390625 -35.015625 C 5.679688 -35.015625 5.921875 -35.015625 6.109375 -35.015625 C 6.410156 -35.015625 6.921875 -35.03125 7.640625 -35.0625 C 8.367188 -35.09375 9.195312 -35.125 10.125 -35.15625 C 11.0625 -35.1875 12.03125 -35.21875 13.03125 -35.25 C 14.03125 -35.28125 14.96875 -35.296875 15.84375 -35.296875 C 18.207031 -35.296875 20.453125 -35.003906 22.578125 -34.421875 C 24.710938 -33.835938 26.582031 -32.878906 28.1875 -31.546875 C 29.800781 -30.210938 31.082031 -28.460938 32.03125 -26.296875 C 32.976562 -24.128906 33.453125 -21.46875 33.453125 -18.3125 C 33.453125 -16.050781 33.203125 -14.015625 32.703125 -12.203125 C 32.203125 -10.398438 31.503906 -8.804688 30.609375 -7.421875 C 29.710938 -6.035156 28.640625 -4.847656 27.390625 -3.859375 C 26.148438 -2.878906 24.773438 -2.070312 23.265625 -1.4375 C 21.765625 -0.800781 20.160156 -0.335938 18.453125 -0.046875 C 16.742188 0.242188 14.976562 0.390625 13.15625 0.390625 C 12.507812 0.390625 11.722656 0.367188 10.796875 0.328125 C 9.878906 0.285156 8.957031 0.238281 8.03125 0.1875 C 7.101562 0.144531 6.226562 0.101562 5.40625 0.0625 C 4.582031 0.0195312 3.941406 0 3.484375 0 L 3.484375 -0.09375 C 3.585938 -0.4375 3.679688 -0.859375 3.765625 -1.359375 C 3.859375 -1.867188 3.9375 -2.5 4 -3.25 C 4.070312 -4 4.125 -4.890625 4.15625 -5.921875 C 4.1875 -6.953125 4.203125 -8.160156 4.203125 -9.546875 L 4.203125 -25.4375 C 4.203125 -26.820312 4.1875 -28.039062 4.15625 -29.09375 C 4.125 -30.144531 4.070312 -31.046875 4 -31.796875 C 3.9375 -32.554688 3.859375 -33.195312 3.765625 -33.71875 C 3.679688 -34.238281 3.585938 -34.671875 3.484375 -35.015625 Z M 3.484375 -35.109375 "/></g></g></g><g fill="#ffffff" fill-opacity="1"><g transform="translate(253.816531, 246.092708)"><g><path d="M 3.484375 -35.015625 C 5.523438 -35.015625 7.550781 -35.019531 9.5625 -35.03125 C 11.570312 -35.050781 13.414062 -35.070312 15.09375 -35.09375 C 16.769531 -35.113281 18.203125 -35.148438 19.390625 -35.203125 C 20.578125 -35.253906 21.378906 -35.320312 21.796875 -35.40625 L 20.609375 -32.15625 C 20.066406 -32.300781 19.4375 -32.429688 18.71875 -32.546875 C 18.101562 -32.640625 17.351562 -32.726562 16.46875 -32.8125 C 15.582031 -32.90625 14.5625 -32.953125 13.40625 -32.953125 C 13.007812 -32.953125 12.539062 -32.941406 12 -32.921875 C 11.457031 -32.898438 10.929688 -32.875 10.421875 -32.84375 C 9.835938 -32.800781 9.242188 -32.765625 8.640625 -32.734375 L 8.640625 -19.40625 C 10.316406 -19.425781 11.828125 -19.472656 13.171875 -19.546875 C 14.523438 -19.628906 15.675781 -19.710938 16.625 -19.796875 C 17.726562 -19.898438 18.707031 -20.015625 19.5625 -20.140625 L 18.796875 -16.609375 C 17.671875 -16.753906 16.523438 -16.890625 15.359375 -17.015625 C 14.347656 -17.128906 13.25 -17.226562 12.0625 -17.3125 C 10.875 -17.40625 9.734375 -17.453125 8.640625 -17.453125 L 8.640625 -2.15625 C 10.566406 -2.15625 12.332031 -2.234375 13.9375 -2.390625 C 15.550781 -2.554688 16.960938 -2.742188 18.171875 -2.953125 C 19.566406 -3.179688 20.84375 -3.453125 22 -3.765625 L 21.296875 0.203125 C 21.097656 0.179688 20.800781 0.160156 20.40625 0.140625 C 20.019531 0.128906 19.585938 0.113281 19.109375 0.09375 C 18.628906 0.0820312 18.125 0.0703125 17.59375 0.0625 C 17.0625 0.0507812 16.554688 0.0390625 16.078125 0.03125 C 15.609375 0.03125 15.191406 0.0234375 14.828125 0.015625 C 14.460938 0.00390625 14.195312 0 14.03125 0 L 3.484375 0 L 3.484375 -0.09375 C 3.585938 -0.4375 3.679688 -0.859375 3.765625 -1.359375 C 3.859375 -1.867188 3.9375 -2.5 4 -3.25 C 4.070312 -4 4.125 -4.890625 4.15625 -5.921875 C 4.1875 -6.953125 4.203125 -8.160156 4.203125 -9.546875 L 4.203125 -25.4375 C 4.203125 -26.820312 4.1875 -28.03125 4.15625 -29.0625 C 4.125 -30.09375 4.070312 -30.988281 4 -31.75 C 3.9375 -32.507812 3.859375 -33.140625 3.765625 -33.640625 C 3.679688 -34.148438 3.585938 -34.570312 3.484375 -34.90625 Z M 3.484375 -35.015625 "/></g></g></g><g fill="#ffffff" fill-opacity="1"><g transform="translate(278.924409, 246.092708)"><g><path d="M 8.84375 -32.90625 C 8.8125 -31.082031 8.773438 -29.316406 8.734375 -27.609375 C 8.722656 -26.878906 8.710938 -26.128906 8.703125 -25.359375 C 8.691406 -24.597656 8.679688 -23.847656 8.671875 -23.109375 C 8.671875 -22.367188 8.664062 -21.660156 8.65625 -20.984375 C 8.644531 -20.304688 8.640625 -19.707031 8.640625 -19.1875 C 8.640625 -18.09375 8.644531 -16.773438 8.65625 -15.234375 C 8.675781 -13.691406 8.695312 -12.101562 8.71875 -10.46875 C 8.75 -8.84375 8.785156 -7.28125 8.828125 -5.78125 C 8.878906 -4.289062 8.941406 -3.046875 9.015625 -2.046875 C 9.234375 -2.015625 9.535156 -1.976562 9.921875 -1.9375 C 10.304688 -1.894531 10.707031 -1.863281 11.125 -1.84375 C 11.550781 -1.820312 11.96875 -1.800781 12.375 -1.78125 C 12.78125 -1.769531 13.125 -1.765625 13.40625 -1.765625 C 14.539062 -1.765625 15.707031 -1.835938 16.90625 -1.984375 C 18.101562 -2.140625 19.257812 -2.425781 20.375 -2.84375 C 21.488281 -3.269531 22.535156 -3.851562 23.515625 -4.59375 C 24.503906 -5.34375 25.367188 -6.300781 26.109375 -7.46875 C 26.847656 -8.644531 27.425781 -10.054688 27.84375 -11.703125 C 28.269531 -13.359375 28.484375 -15.304688 28.484375 -17.546875 C 28.484375 -20.046875 28.179688 -22.265625 27.578125 -24.203125 C 26.984375 -26.148438 26.101562 -27.789062 24.9375 -29.125 C 23.769531 -30.457031 22.328125 -31.46875 20.609375 -32.15625 C 18.898438 -32.851562 16.929688 -33.203125 14.703125 -33.203125 C 14.253906 -33.203125 13.753906 -33.1875 13.203125 -33.15625 C 12.648438 -33.132812 12.101562 -33.113281 11.5625 -33.09375 C 11.019531 -33.070312 10.503906 -33.039062 10.015625 -33 C 9.535156 -32.957031 9.144531 -32.925781 8.84375 -32.90625 Z M 3.484375 -35.109375 C 3.859375 -35.085938 4.210938 -35.070312 4.546875 -35.0625 C 4.816406 -35.039062 5.097656 -35.023438 5.390625 -35.015625 C 5.679688 -35.015625 5.921875 -35.015625 6.109375 -35.015625 C 6.410156 -35.015625 6.921875 -35.03125 7.640625 -35.0625 C 8.367188 -35.09375 9.195312 -35.125 10.125 -35.15625 C 11.0625 -35.1875 12.03125 -35.21875 13.03125 -35.25 C 14.03125 -35.28125 14.96875 -35.296875 15.84375 -35.296875 C 18.207031 -35.296875 20.453125 -35.003906 22.578125 -34.421875 C 24.710938 -33.835938 26.582031 -32.878906 28.1875 -31.546875 C 29.800781 -30.210938 31.082031 -28.460938 32.03125 -26.296875 C 32.976562 -24.128906 33.453125 -21.46875 33.453125 -18.3125 C 33.453125 -16.050781 33.203125 -14.015625 32.703125 -12.203125 C 32.203125 -10.398438 31.503906 -8.804688 30.609375 -7.421875 C 29.710938 -6.035156 28.640625 -4.847656 27.390625 -3.859375 C 26.148438 -2.878906 24.773438 -2.070312 23.265625 -1.4375 C 21.765625 -0.800781 20.160156 -0.335938 18.453125 -0.046875 C 16.742188 0.242188 14.976562 0.390625 13.15625 0.390625 C 12.507812 0.390625 11.722656 0.367188 10.796875 0.328125 C 9.878906 0.285156 8.957031 0.238281 8.03125 0.1875 C 7.101562 0.144531 6.226562 0.101562 5.40625 0.0625 C 4.582031 0.0195312 3.941406 0 3.484375 0 L 3.484375 -0.09375 C 3.585938 -0.4375 3.679688 -0.859375 3.765625 -1.359375 C 3.859375 -1.867188 3.9375 -2.5 4 -3.25 C 4.070312 -4 4.125 -4.890625 4.15625 -5.921875 C 4.1875 -6.953125 4.203125 -8.160156 4.203125 -9.546875 L 4.203125 -25.4375 C 4.203125 -26.820312 4.1875 -28.039062 4.15625 -29.09375 C 4.125 -30.144531 4.070312 -31.046875 4 -31.796875 C 3.9375 -32.554688 3.859375 -33.195312 3.765625 -33.71875 C 3.679688 -34.238281 3.585938 -34.671875 3.484375 -35.015625 Z M 3.484375 -35.109375 "/></g></g></g><g fill="#fab12f" fill-opacity="1"><g transform="translate(133.369003, 278.592697)"><g><path d="M 7.140625 0 L 7.140625 -18.9375 L 0.875 -18.9375 L 0.875 -21 L 15.9375 -21 L 15.9375 -18.9375 L 9.65625 -18.9375 L 9.65625 0 Z M 7.140625 0 "/></g></g></g><g fill="#fab12f" fill-opacity="1"><g transform="translate(159.288985, 278.592697)"><g><path d="M 7.015625 0.359375 C 5.773438 0.359375 4.742188 0.148438 3.921875 -0.265625 C 3.109375 -0.691406 2.5 -1.253906 2.09375 -1.953125 C 1.695312 -2.648438 1.5 -3.410156 1.5 -4.234375 C 1.5 -5.753906 2.078125 -6.921875 3.234375 -7.734375 C 4.398438 -8.554688 5.984375 -8.96875 7.984375 -8.96875 L 12 -8.96875 L 12 -9.15625 C 12 -10.445312 11.65625 -11.425781 10.96875 -12.09375 C 10.289062 -12.769531 9.382812 -13.109375 8.25 -13.109375 C 7.269531 -13.109375 6.425781 -12.863281 5.71875 -12.375 C 5.007812 -11.882812 4.5625 -11.171875 4.375 -10.234375 L 1.796875 -10.234375 C 1.898438 -11.304688 2.265625 -12.210938 2.890625 -12.953125 C 3.523438 -13.691406 4.3125 -14.253906 5.25 -14.640625 C 6.1875 -15.035156 7.1875 -15.234375 8.25 -15.234375 C 10.332031 -15.234375 11.894531 -14.675781 12.9375 -13.5625 C 13.988281 -12.457031 14.515625 -10.988281 14.515625 -9.15625 L 14.515625 0 L 12.265625 0 L 12.125 -2.671875 C 11.695312 -1.828125 11.078125 -1.109375 10.265625 -0.515625 C 9.460938 0.0664062 8.378906 0.359375 7.015625 0.359375 Z M 7.40625 -1.765625 C 8.363281 -1.765625 9.1875 -2.015625 9.875 -2.515625 C 10.570312 -3.015625 11.097656 -3.664062 11.453125 -4.46875 C 11.816406 -5.269531 12 -6.109375 12 -6.984375 L 12 -7.015625 L 8.1875 -7.015625 C 6.707031 -7.015625 5.660156 -6.757812 5.046875 -6.25 C 4.441406 -5.738281 4.140625 -5.101562 4.140625 -4.34375 C 4.140625 -3.570312 4.421875 -2.945312 4.984375 -2.46875 C 5.554688 -2 6.363281 -1.765625 7.40625 -1.765625 Z M 7.40625 -1.765625 "/></g></g></g><g fill="#fab12f" fill-opacity="1"><g transform="translate(184.638971, 278.592697)"><g><path d="M 2.0625 0 L 2.0625 -21.59375 L 4.59375 -21.59375 L 4.59375 0 Z M 2.0625 0 "/></g></g></g><g fill="#fab12f" fill-opacity="1"><g transform="translate(200.41896, 278.592697)"><g><path d="M 8.765625 0.359375 C 7.335938 0.359375 6.070312 0.0351562 4.96875 -0.609375 C 3.875 -1.265625 3.007812 -2.171875 2.375 -3.328125 C 1.75 -4.484375 1.4375 -5.851562 1.4375 -7.4375 C 1.4375 -9 1.742188 -10.363281 2.359375 -11.53125 C 2.984375 -12.707031 3.847656 -13.617188 4.953125 -14.265625 C 6.066406 -14.910156 7.351562 -15.234375 8.8125 -15.234375 C 10.257812 -15.234375 11.503906 -14.910156 12.546875 -14.265625 C 13.597656 -13.617188 14.40625 -12.765625 14.96875 -11.703125 C 15.53125 -10.640625 15.8125 -9.5 15.8125 -8.28125 C 15.8125 -8.0625 15.804688 -7.84375 15.796875 -7.625 C 15.785156 -7.40625 15.78125 -7.15625 15.78125 -6.875 L 3.9375 -6.875 C 3.988281 -5.726562 4.25 -4.78125 4.71875 -4.03125 C 5.195312 -3.28125 5.789062 -2.710938 6.5 -2.328125 C 7.207031 -1.953125 7.960938 -1.765625 8.765625 -1.765625 C 9.796875 -1.765625 10.660156 -2.003906 11.359375 -2.484375 C 12.066406 -2.960938 12.582031 -3.613281 12.90625 -4.4375 L 15.390625 -4.4375 C 14.992188 -3.0625 14.226562 -1.914062 13.09375 -1 C 11.96875 -0.09375 10.523438 0.359375 8.765625 0.359375 Z M 8.765625 -13.109375 C 7.554688 -13.109375 6.488281 -12.742188 5.5625 -12.015625 C 4.632812 -11.285156 4.097656 -10.21875 3.953125 -8.8125 L 13.3125 -8.8125 C 13.257812 -10.15625 12.800781 -11.207031 11.9375 -11.96875 C 11.082031 -12.726562 10.023438 -13.109375 8.765625 -13.109375 Z M 8.765625 -13.109375 "/></g></g></g><g fill="#fab12f" fill-opacity="1"><g transform="translate(226.608945, 278.592697)"><g><path d="M 7.765625 0.359375 C 5.984375 0.359375 4.503906 -0.0859375 3.328125 -0.984375 C 2.148438 -1.890625 1.460938 -3.113281 1.265625 -4.65625 L 3.84375 -4.65625 C 4 -3.875 4.410156 -3.195312 5.078125 -2.625 C 5.753906 -2.050781 6.660156 -1.765625 7.796875 -1.765625 C 8.859375 -1.765625 9.640625 -1.988281 10.140625 -2.4375 C 10.640625 -2.894531 10.890625 -3.429688 10.890625 -4.046875 C 10.890625 -4.953125 10.5625 -5.550781 9.90625 -5.84375 C 9.257812 -6.144531 8.347656 -6.414062 7.171875 -6.65625 C 6.367188 -6.820312 5.566406 -7.050781 4.765625 -7.34375 C 3.960938 -7.644531 3.289062 -8.070312 2.75 -8.625 C 2.21875 -9.175781 1.953125 -9.898438 1.953125 -10.796875 C 1.953125 -12.097656 2.4375 -13.160156 3.40625 -13.984375 C 4.375 -14.816406 5.6875 -15.234375 7.34375 -15.234375 C 8.925781 -15.234375 10.222656 -14.835938 11.234375 -14.046875 C 12.242188 -13.265625 12.828125 -12.144531 12.984375 -10.6875 L 10.5 -10.6875 C 10.394531 -11.4375 10.066406 -12.023438 9.515625 -12.453125 C 8.972656 -12.890625 8.238281 -13.109375 7.3125 -13.109375 C 6.414062 -13.109375 5.722656 -12.914062 5.234375 -12.53125 C 4.742188 -12.15625 4.5 -11.660156 4.5 -11.046875 C 4.5 -10.441406 4.8125 -9.96875 5.4375 -9.625 C 6.070312 -9.289062 6.929688 -9.003906 8.015625 -8.765625 C 8.929688 -8.554688 9.800781 -8.304688 10.625 -8.015625 C 11.457031 -7.734375 12.140625 -7.304688 12.671875 -6.734375 C 13.203125 -6.160156 13.46875 -5.335938 13.46875 -4.265625 C 13.488281 -2.921875 12.984375 -1.8125 11.953125 -0.9375 C 10.921875 -0.0703125 9.523438 0.359375 7.765625 0.359375 Z M 7.765625 0.359375 "/></g></g></g></svg>